<svg width="61" height="31" viewBox="0 0 61 31" fill="none" xmlns="http://www.w3.org/2000/svg">
<path d="M4.634 8.486V10.012H13.566V8.486H4.634ZM6.468 12.364H11.578V13.75H6.468V12.364ZM4.942 10.992V15.122H13.188V10.992H4.942ZM6.258 15.262L4.886 15.682C6.412 18.314 9.002 19.728 12.796 20.246C13.006 19.784 13.426 19.112 13.776 18.748C10.15 18.412 7.504 17.278 6.258 15.262ZM8.176 7.198V13.582C8.176 15.878 7.812 18.02 4.046 18.86C4.41 19.21 4.9 19.882 5.096 20.26C9.114 19.056 9.828 16.452 9.828 13.596V7.198H8.176ZM3.57 7.072C2.814 9.074 1.512 11.062 0.182 12.322C0.462 12.728 0.91 13.652 1.05 14.044C2.646 12.462 4.186 9.956 5.138 7.576L3.57 7.072ZM2.212 10.978V20.288H3.808V9.396L3.794 9.382L2.212 10.978ZM18.34 8.052V9.648H26.936V8.052H18.34ZM18.34 11.272V12.84H26.964V11.272H18.34ZM18.312 14.576V16.158H27.02V14.576H18.312ZM17.374 8.052V13.078C17.374 15.052 17.248 17.558 15.722 19.252C16.086 19.462 16.772 20.022 17.038 20.344C18.76 18.468 19.04 15.318 19.04 13.092V8.052H17.374ZM26.348 8.052V18.272C26.348 18.51 26.25 18.594 25.984 18.608C25.732 18.608 24.808 18.622 24.01 18.566C24.234 19 24.486 19.728 24.556 20.176C25.83 20.19 26.67 20.162 27.258 19.896C27.818 19.63 28.014 19.182 28.014 18.286V8.052H26.348ZM21.686 8.682V20.092H23.394V8.682H21.686ZM38.78 12.378H41.818V13.862H38.78V12.378ZM37.254 10.936V15.29H43.442V10.936H37.254ZM40.488 14.87V18.244C40.488 19.672 40.768 20.162 42.042 20.162C42.266 20.162 42.756 20.162 43.008 20.162C44.03 20.162 44.422 19.63 44.548 17.558C44.128 17.446 43.456 17.18 43.148 16.914C43.106 18.468 43.064 18.678 42.826 18.678C42.714 18.678 42.392 18.678 42.308 18.678C42.112 18.678 42.084 18.636 42.084 18.244V14.87H40.488ZM38.15 15.094C38.024 16.914 37.744 18.216 35.644 18.972C35.994 19.266 36.428 19.896 36.596 20.288C39.144 19.252 39.62 17.502 39.788 15.094H38.15ZM38.556 7.492V9.018H41.944V7.492H38.556ZM37.562 8.738C37.296 9.648 36.694 10.796 35.966 11.496C36.344 11.706 36.932 12.112 37.268 12.406C38.052 11.594 38.738 10.306 39.2 9.158L37.562 8.738ZM40.67 7.492V8.276H40.964C41.44 9.662 42.224 11.132 43.148 12.154C43.47 11.818 44.142 11.328 44.562 11.09C43.666 10.25 42.812 8.836 42.392 7.492H40.67ZM31.878 11.412V12.672H36.106V11.412H31.878ZM31.92 7.548V8.822H36.064V7.548H31.92ZM31.878 13.316V14.59H36.106V13.316H31.878ZM31.206 9.438V10.768H36.568V9.438H31.206ZM32.606 15.262V16.592H34.692V18.188H32.606V19.518H36.12V15.262H32.606ZM31.85 15.262V20.078H33.264V15.262H31.85ZM48.048 7.884V9.396H50.512V14.94H48.048V16.48H52.066V7.884H48.048ZM48.062 11.384V12.882H51.128V11.384H48.062ZM54.04 7.674V9.228H58.338V7.674H54.04ZM54.04 11.02V12.532H58.338V11.02H54.04ZM54.012 14.338V15.836H58.324V14.338H54.012ZM47.152 7.884V17.698H48.706V7.884H47.152ZM57.708 7.674V18.314C57.708 18.566 57.624 18.65 57.372 18.65C57.134 18.65 56.28 18.664 55.524 18.622C55.762 19.056 56.028 19.784 56.098 20.246C57.288 20.246 58.086 20.204 58.646 19.938C59.192 19.672 59.374 19.21 59.374 18.342V7.674H57.708ZM53.032 7.674V12.742C53.032 14.884 52.822 17.516 50.456 19.238C50.82 19.462 51.464 20.036 51.716 20.372C54.306 18.468 54.684 15.178 54.684 12.756V7.674H53.032Z" fill="white"/>
<line x1="1.5" y1="29.5" x2="59.5" y2="29.5" stroke="white" stroke-width="3" stroke-linecap="round"/>
</svg>
