<svg width="52" height="25" viewBox="0 0 52 25" fill="none" xmlns="http://www.w3.org/2000/svg">
<path d="M3.972 6.988V8.296H11.628V6.988H3.972ZM5.544 10.312H9.924V11.5H5.544V10.312ZM4.236 9.136V12.676H11.304V9.136H4.236ZM5.364 12.796L4.188 13.156C5.496 15.412 7.716 16.624 10.968 17.068C11.148 16.672 11.508 16.096 11.808 15.784C8.7 15.496 6.432 14.524 5.364 12.796ZM7.008 5.884V11.356C7.008 13.324 6.696 15.16 3.468 15.88C3.78 16.18 4.2 16.756 4.368 17.08C7.812 16.048 8.424 13.816 8.424 11.368V5.884H7.008ZM3.06 5.776C2.412 7.492 1.296 9.196 0.156 10.276C0.396 10.624 0.78 11.416 0.9 11.752C2.268 10.396 3.588 8.248 4.404 6.208L3.06 5.776ZM1.896 9.124V17.104H3.264V7.768L3.252 7.756L1.896 9.124ZM15.72 6.616V7.984H23.088V6.616H15.72ZM15.72 9.376V10.72H23.112V9.376H15.72ZM15.696 12.208V13.564H23.16V12.208H15.696ZM14.892 6.616V10.924C14.892 12.616 14.784 14.764 13.476 16.216C13.788 16.396 14.376 16.876 14.604 17.152C16.08 15.544 16.32 12.844 16.32 10.936V6.616H14.892ZM22.584 6.616V15.376C22.584 15.58 22.5 15.652 22.272 15.664C22.056 15.664 21.264 15.676 20.58 15.628C20.772 16 20.988 16.624 21.048 17.008C22.14 17.02 22.86 16.996 23.364 16.768C23.844 16.54 24.012 16.156 24.012 15.388V6.616H22.584ZM18.588 7.156V16.936H20.052V7.156H18.588ZM33.24 10.324H35.844V11.596H33.24V10.324ZM31.932 9.088V12.82H37.236V9.088H31.932ZM34.704 12.46V15.352C34.704 16.576 34.944 16.996 36.036 16.996C36.228 16.996 36.648 16.996 36.864 16.996C37.74 16.996 38.076 16.54 38.184 14.764C37.824 14.668 37.248 14.44 36.984 14.212C36.948 15.544 36.912 15.724 36.708 15.724C36.612 15.724 36.336 15.724 36.264 15.724C36.096 15.724 36.072 15.688 36.072 15.352V12.46H34.704ZM32.7 12.652C32.592 14.212 32.352 15.328 30.552 15.976C30.852 16.228 31.224 16.768 31.368 17.104C33.552 16.216 33.96 14.716 34.104 12.652H32.7ZM33.048 6.136V7.444H35.952V6.136H33.048ZM32.196 7.204C31.968 7.984 31.452 8.968 30.828 9.568C31.152 9.748 31.656 10.096 31.944 10.348C32.616 9.652 33.204 8.548 33.6 7.564L32.196 7.204ZM34.86 6.136V6.808H35.112C35.52 7.996 36.192 9.256 36.984 10.132C37.26 9.844 37.836 9.424 38.196 9.22C37.428 8.5 36.696 7.288 36.336 6.136H34.86ZM27.324 9.496V10.576H30.948V9.496H27.324ZM27.36 6.184V7.276H30.912V6.184H27.36ZM27.324 11.128V12.22H30.948V11.128H27.324ZM26.748 7.804V8.944H31.344V7.804H26.748ZM27.948 12.796V13.936H29.736V15.304H27.948V16.444H30.96V12.796H27.948ZM27.3 12.796V16.924H28.512V12.796H27.3ZM41.184 6.472V7.768H43.296V12.52H41.184V13.84H44.628V6.472H41.184ZM41.196 9.472V10.756H43.824V9.472H41.196ZM46.32 6.292V7.624H50.004V6.292H46.32ZM46.32 9.16V10.456H50.004V9.16H46.32ZM46.296 12.004V13.288H49.992V12.004H46.296ZM40.416 6.472V14.884H41.748V6.472H40.416ZM49.464 6.292V15.412C49.464 15.628 49.392 15.7 49.176 15.7C48.972 15.7 48.24 15.712 47.592 15.676C47.796 16.048 48.024 16.672 48.084 17.068C49.104 17.068 49.788 17.032 50.268 16.804C50.736 16.576 50.892 16.18 50.892 15.436V6.292H49.464ZM45.456 6.292V10.636C45.456 12.472 45.276 14.728 43.248 16.204C43.56 16.396 44.112 16.888 44.328 17.176C46.548 15.544 46.872 12.724 46.872 10.648V6.292H45.456Z" fill="white"/>
</svg>
