<svg width="52" height="25" viewBox="0 0 52 25" fill="none" xmlns="http://www.w3.org/2000/svg">
<path d="M5.388 11.752V17.08H6.876V11.752H5.388ZM4.176 10.288H7.752V11.032H4.176V10.288ZM2.796 9.268V12.052H9.228V9.268H2.796ZM1.644 12.772V16.552H3.096V14.056H9.72V12.772H1.644ZM9.036 12.772V15.22C9.036 15.352 8.976 15.388 8.796 15.4C8.628 15.4 7.98 15.4 7.44 15.376C7.632 15.736 7.836 16.288 7.908 16.684C8.772 16.684 9.42 16.672 9.9 16.468C10.38 16.264 10.512 15.892 10.512 15.244V12.772H9.036ZM5.232 5.8V8.008H6.72V5.8H5.232ZM0.84 7.456V10.36H2.22V8.692H9.768V10.36H11.196V7.456H0.84ZM1.8 6.4C2.124 6.808 2.472 7.396 2.604 7.78L3.984 7.168C3.816 6.796 3.456 6.268 3.108 5.884L1.8 6.4ZM8.82 5.896C8.616 6.292 8.256 6.844 7.956 7.216L9.168 7.648C9.504 7.336 9.936 6.868 10.368 6.364L8.82 5.896ZM16.68 9.352H21.72V10.096H16.68V9.352ZM16.68 11.272H21.72V12.016H16.68V11.272ZM16.68 7.444H21.72V8.188H16.68V7.444ZM15.288 6.184V13.276H23.184V6.184H15.288ZM19.752 12.304V15.184C19.752 16.552 20.1 16.984 21.54 16.984C21.816 16.984 22.824 16.984 23.124 16.984C24.324 16.984 24.708 16.492 24.864 14.584C24.468 14.488 23.832 14.248 23.544 14.008C23.484 15.424 23.412 15.628 22.992 15.628C22.74 15.628 21.936 15.628 21.732 15.628C21.3 15.628 21.216 15.568 21.216 15.184V12.304H19.752ZM16.812 12.796C16.656 14.404 16.332 15.328 13.548 15.844C13.848 16.156 14.232 16.744 14.352 17.128C17.592 16.396 18.156 14.98 18.36 12.796H16.812ZM30.636 11.596V12.772H33.348V14.2H30.636V15.376H34.692V11.596H30.636ZM30.024 11.596V16.06H31.356V11.596H30.024ZM28.056 8.008V8.992H31.068V8.008H28.056ZM33.624 8.008V8.992H36.66V8.008H33.624ZM36.06 6.268V15.34C36.06 15.556 35.976 15.64 35.748 15.64C35.52 15.64 34.692 15.652 33.996 15.616C34.2 15.988 34.44 16.672 34.488 17.08C35.592 17.08 36.348 17.056 36.852 16.816C37.344 16.576 37.512 16.168 37.512 15.352V6.268H36.06ZM28.176 6.268V7.372H30.624V9.664H28.176V10.768H31.968V6.268H28.176ZM36.84 6.268H32.784V10.78H36.84V9.688H34.152V7.36H36.84V6.268ZM27.348 6.268V17.08H28.776V6.268H27.348ZM41.94 8.716H43.644V9.292H41.94V8.716ZM41.94 7.24H43.644V7.804H41.94V7.24ZM40.668 6.28V10.264H44.976V6.28H40.668ZM40.104 10.948V12.004H45.516V10.948H40.104ZM45.468 6.316V7.324H51V6.316H45.468ZM42.348 11.284V15.412L43.548 16.108V11.284H42.348ZM42.972 12.976V14.008H45.3V12.976H42.972ZM47.784 6.556C47.664 7.12 47.436 7.9 47.22 8.44L48.24 8.704C48.492 8.236 48.804 7.516 49.092 6.844L47.784 6.556ZM47.124 10.42H49.308V10.984H47.124V10.42ZM47.124 11.896H49.308V12.472H47.124V11.896ZM47.124 8.932H49.308V9.496H47.124V8.932ZM45.84 7.96V13.456H50.64V7.96H45.84ZM46.812 13.54C46.404 14.032 45.684 14.524 44.964 14.836C45.228 15.028 45.684 15.448 45.888 15.676C46.632 15.268 47.484 14.584 48 13.9L46.812 13.54ZM40.656 12.472C40.62 13.924 40.5 15.34 39.816 16.18C40.104 16.396 40.488 16.852 40.656 17.152C41.568 16.072 41.748 14.308 41.808 12.472H40.656ZM41.616 13.48L40.764 13.732C41.616 16.444 43.26 16.852 46.236 16.852H50.868C50.94 16.492 51.144 15.94 51.336 15.664C50.352 15.712 47.04 15.712 46.236 15.712C43.788 15.7 42.288 15.496 41.616 13.48ZM48.516 13.972C49.116 14.416 49.86 15.112 50.232 15.592L51.264 14.98C50.892 14.524 50.148 13.876 49.5 13.456L48.516 13.972Z" fill="white"/>
</svg>
