<svg width="61" height="30" viewBox="0 0 61 30" fill="none" xmlns="http://www.w3.org/2000/svg">
<path d="M6.286 14.044V20.26H8.022V14.044H6.286ZM4.872 12.336H9.044V13.204H4.872V12.336ZM3.262 11.146V14.394H10.766V11.146H3.262ZM1.918 15.234V19.644H3.612V16.732H11.34V15.234H1.918ZM10.542 15.234V18.09C10.542 18.244 10.472 18.286 10.262 18.3C10.066 18.3 9.31 18.3 8.68 18.272C8.904 18.692 9.142 19.336 9.226 19.798C10.234 19.798 10.99 19.784 11.55 19.546C12.11 19.308 12.264 18.874 12.264 18.118V15.234H10.542ZM6.104 7.1V9.676H7.84V7.1H6.104ZM0.98 9.032V12.42H2.59V10.474H11.396V12.42H13.062V9.032H0.98ZM2.1 7.8C2.478 8.276 2.884 8.962 3.038 9.41L4.648 8.696C4.452 8.262 4.032 7.646 3.626 7.198L2.1 7.8ZM10.29 7.212C10.052 7.674 9.632 8.318 9.282 8.752L10.696 9.256C11.088 8.892 11.592 8.346 12.096 7.758L10.29 7.212ZM19.46 11.244H25.34V12.112H19.46V11.244ZM19.46 13.484H25.34V14.352H19.46V13.484ZM19.46 9.018H25.34V9.886H19.46V9.018ZM17.836 7.548V15.822H27.048V7.548H17.836ZM23.044 14.688V18.048C23.044 19.644 23.45 20.148 25.13 20.148C25.452 20.148 26.628 20.148 26.978 20.148C28.378 20.148 28.826 19.574 29.008 17.348C28.546 17.236 27.804 16.956 27.468 16.676C27.398 18.328 27.314 18.566 26.824 18.566C26.53 18.566 25.592 18.566 25.354 18.566C24.85 18.566 24.752 18.496 24.752 18.048V14.688H23.044ZM19.614 15.262C19.432 17.138 19.054 18.216 15.806 18.818C16.156 19.182 16.604 19.868 16.744 20.316C20.524 19.462 21.182 17.81 21.42 15.262H19.614ZM35.742 13.862V15.234H38.906V16.9H35.742V18.272H40.474V13.862H35.742ZM35.028 13.862V19.07H36.582V13.862H35.028ZM32.732 9.676V10.824H36.246V9.676H32.732ZM39.228 9.676V10.824H42.77V9.676H39.228ZM42.07 7.646V18.23C42.07 18.482 41.972 18.58 41.706 18.58C41.44 18.58 40.474 18.594 39.662 18.552C39.9 18.986 40.18 19.784 40.236 20.26C41.524 20.26 42.406 20.232 42.994 19.952C43.568 19.672 43.764 19.196 43.764 18.244V7.646H42.07ZM32.872 7.646V8.934H35.728V11.608H32.872V12.896H37.296V7.646H32.872ZM42.98 7.646H38.248V12.91H42.98V11.636H39.844V8.92H42.98V7.646ZM31.906 7.646V20.26H33.572V7.646H31.906ZM48.93 10.502H50.918V11.174H48.93V10.502ZM48.93 8.78H50.918V9.438H48.93V8.78ZM47.446 7.66V12.308H52.472V7.66H47.446ZM46.788 13.106V14.338H53.102V13.106H46.788ZM53.046 7.702V8.878H59.5V7.702H53.046ZM49.406 13.498V18.314L50.806 19.126V13.498H49.406ZM50.134 15.472V16.676H52.85V15.472H50.134ZM55.748 7.982C55.608 8.64 55.342 9.55 55.09 10.18L56.28 10.488C56.574 9.942 56.938 9.102 57.274 8.318L55.748 7.982ZM54.978 12.49H57.526V13.148H54.978V12.49ZM54.978 14.212H57.526V14.884H54.978V14.212ZM54.978 10.754H57.526V11.412H54.978V10.754ZM53.48 9.62V16.032H59.08V9.62H53.48ZM54.614 16.13C54.138 16.704 53.298 17.278 52.458 17.642C52.766 17.866 53.298 18.356 53.536 18.622C54.404 18.146 55.398 17.348 56 16.55L54.614 16.13ZM47.432 14.884C47.39 16.578 47.25 18.23 46.452 19.21C46.788 19.462 47.236 19.994 47.432 20.344C48.496 19.084 48.706 17.026 48.776 14.884H47.432ZM48.552 16.06L47.558 16.354C48.552 19.518 50.47 19.994 53.942 19.994H59.346C59.43 19.574 59.668 18.93 59.892 18.608C58.744 18.664 54.88 18.664 53.942 18.664C51.086 18.65 49.336 18.412 48.552 16.06ZM56.602 16.634C57.302 17.152 58.17 17.964 58.604 18.524L59.808 17.81C59.374 17.278 58.506 16.522 57.75 16.032L56.602 16.634Z" fill="white"/>
</svg>
