<svg width="61" height="30" viewBox="0 0 61 30" fill="none" xmlns="http://www.w3.org/2000/svg">
<path d="M3.99 10.222H9.94V10.81H3.99V10.222ZM3.99 8.64H9.94V9.214H3.99V8.64ZM2.38 7.562V11.888H11.62V7.562H2.38ZM0.728 12.392V13.736H13.244V12.392H0.728ZM7.14 14.254V15.542H11.718V14.254H7.14ZM2.87 14.296V15.458H6.062V14.296H2.87ZM2.87 16.046V17.208H6.062V16.046H2.87ZM8.862 15.416L7.518 15.794C8.47 17.978 10.136 19.546 12.558 20.246C12.768 19.854 13.202 19.238 13.552 18.944C11.298 18.412 9.646 17.124 8.862 15.416ZM11.228 14.254V14.492C10.612 16.648 8.806 18.258 6.636 18.944C6.944 19.252 7.364 19.854 7.546 20.246C10.038 19.308 12.012 17.516 12.838 14.59L11.802 14.198L11.522 14.254H11.228ZM0.602 18.09L0.714 19.532C2.184 19.406 4.144 19.224 6.02 19.042V17.684C4.06 17.852 2.002 18.006 0.602 18.09ZM5.194 12.826V20.26H6.804V12.826H5.194ZM1.82 12.868V18.58H3.36V12.868H1.82ZM23.73 11.748V13.302H28.952V11.748H23.73ZM16.142 8.5V9.872H22.442V8.5H16.142ZM16.002 14.072V15.486H22.428V14.072H16.002ZM15.96 11.622V13.008H22.554V11.622H15.96ZM25.998 12.42V20.19H27.622V12.42H25.998ZM18.48 7.226V9.116H20.118V7.226H18.48ZM18.48 12.924V20.246H20.118V12.924H18.48ZM22.974 8.22V13.106C22.974 15.024 22.82 17.418 21.196 19.14C21.574 19.35 22.19 19.924 22.4 20.288C24.304 18.314 24.57 15.22 24.57 13.134V9.018C24.822 8.976 24.92 8.906 24.934 8.766L22.974 8.22ZM27.552 7.254C26.558 7.786 24.906 8.29 23.408 8.626C23.604 8.948 23.842 9.536 23.926 9.9C25.564 9.592 27.468 9.116 28.896 8.472L27.552 7.254ZM19.992 15.542L19.096 16.27C19.614 16.732 20.678 17.782 21.14 18.342L22.106 17.138C21.77 16.858 20.426 15.808 19.992 15.542ZM16.842 10.082C17.066 10.614 17.248 11.328 17.276 11.79L18.648 11.426C18.578 10.964 18.382 10.278 18.13 9.774L16.842 10.082ZM20.328 9.746C20.202 10.236 19.964 10.95 19.768 11.426L21.098 11.706C21.308 11.272 21.546 10.67 21.812 10.026L20.328 9.746ZM18.494 14.898C17.878 16.13 16.716 17.488 15.61 18.202C15.96 18.468 16.45 19.028 16.716 19.392C17.836 18.482 18.998 16.872 19.684 15.332L18.494 14.898ZM37.156 13.624V15.038H42.7V13.624H37.156ZM37.142 16.088V17.488H42.7V16.088H37.142ZM42.56 7.436C42.28 8.29 41.748 9.396 41.328 10.11L42.784 10.656C43.218 9.984 43.736 8.99 44.198 8.01L42.56 7.436ZM35.602 8.164C36.148 8.976 36.694 10.054 36.876 10.768L38.388 10.054C38.178 9.34 37.576 8.304 37.016 7.534L35.602 8.164ZM36.036 11.02V20.246H37.688V12.588H42.728V11.02H36.036ZM41.944 11.02V18.426C41.944 18.608 41.874 18.664 41.664 18.678C41.454 18.678 40.712 18.678 40.068 18.65C40.278 19.084 40.502 19.77 40.572 20.218C41.622 20.218 42.378 20.204 42.91 19.952C43.428 19.686 43.582 19.238 43.582 18.44V11.02H41.944ZM39.018 7.1V12.07H40.712V7.1H39.018ZM31.836 8.402C32.704 8.864 33.796 9.606 34.286 10.124L35.336 8.836C34.79 8.304 33.684 7.646 32.816 7.226L31.836 8.402ZM31.192 12.126C32.088 12.588 33.194 13.33 33.712 13.862L34.72 12.546C34.16 12.014 33.026 11.342 32.144 10.936L31.192 12.126ZM31.584 19.112L33.054 20.19C33.81 18.776 34.594 17.152 35.224 15.64L33.992 14.632C33.236 16.27 32.27 18.048 31.584 19.112ZM50.19 16.27V18.3C50.19 19.756 50.624 20.218 52.444 20.218C52.822 20.218 54.348 20.218 54.74 20.218C56.098 20.218 56.56 19.798 56.77 18.118C56.322 18.034 55.608 17.782 55.272 17.544C55.202 18.58 55.104 18.734 54.572 18.734C54.194 18.734 52.934 18.734 52.64 18.734C51.968 18.734 51.856 18.678 51.856 18.286V16.27H50.19ZM51.744 15.948C52.472 16.55 53.298 17.418 53.648 18.02L54.964 17.124C54.572 16.494 53.718 15.682 52.976 15.122L51.744 15.948ZM56.098 16.676C57.078 17.614 58.086 18.902 58.464 19.812L59.92 18.874C59.5 17.922 58.422 16.704 57.442 15.822L56.098 16.676ZM48.118 16.004C47.824 17.054 47.264 18.132 46.508 18.804L47.908 19.784C48.762 18.958 49.266 17.698 49.616 16.55L48.118 16.004ZM50.414 11.356H56.084V12.056H50.414V11.356ZM50.414 13.274H56.084V13.974H50.414V13.274ZM50.414 9.452H56.084V10.152H50.414V9.452ZM48.79 8.178V15.262H57.778V8.178H48.79ZM52.332 6.96C52.248 7.436 52.066 8.08 51.898 8.57L53.452 8.878C53.69 8.458 54.054 7.884 54.376 7.212L52.332 6.96Z" fill="white"/>
</svg>
