<svg width="60" height="15" viewBox="0 0 60 15" fill="none" xmlns="http://www.w3.org/2000/svg">
<path d="M3.99 4.222H9.94V4.81H3.99V4.222ZM3.99 2.64H9.94V3.214H3.99V2.64ZM2.38 1.562V5.888H11.62V1.562H2.38ZM0.728 6.392V7.736H13.244V6.392H0.728ZM7.14 8.254V9.542H11.718V8.254H7.14ZM2.87 8.296V9.458H6.062V8.296H2.87ZM2.87 10.046V11.208H6.062V10.046H2.87ZM8.862 9.416L7.518 9.794C8.47 11.978 10.136 13.546 12.558 14.246C12.768 13.854 13.202 13.238 13.552 12.944C11.298 12.412 9.646 11.124 8.862 9.416ZM11.228 8.254V8.492C10.612 10.648 8.806 12.258 6.636 12.944C6.944 13.252 7.364 13.854 7.546 14.246C10.038 13.308 12.012 11.516 12.838 8.59L11.802 8.198L11.522 8.254H11.228ZM0.602 12.09L0.714 13.532C2.184 13.406 4.144 13.224 6.02 13.042V11.684C4.06 11.852 2.002 12.006 0.602 12.09ZM5.194 6.826V14.26H6.804V6.826H5.194ZM1.82 6.868V12.58H3.36V6.868H1.82ZM23.73 5.748V7.302H28.952V5.748H23.73ZM16.142 2.5V3.872H22.442V2.5H16.142ZM16.002 8.072V9.486H22.428V8.072H16.002ZM15.96 5.622V7.008H22.554V5.622H15.96ZM25.998 6.42V14.19H27.622V6.42H25.998ZM18.48 1.226V3.116H20.118V1.226H18.48ZM18.48 6.924V14.246H20.118V6.924H18.48ZM22.974 2.22V7.106C22.974 9.024 22.82 11.418 21.196 13.14C21.574 13.35 22.19 13.924 22.4 14.288C24.304 12.314 24.57 9.22 24.57 7.134V3.018C24.822 2.976 24.92 2.906 24.934 2.766L22.974 2.22ZM27.552 1.254C26.558 1.786 24.906 2.29 23.408 2.626C23.604 2.948 23.842 3.536 23.926 3.9C25.564 3.592 27.468 3.116 28.896 2.472L27.552 1.254ZM19.992 9.542L19.096 10.27C19.614 10.732 20.678 11.782 21.14 12.342L22.106 11.138C21.77 10.858 20.426 9.808 19.992 9.542ZM16.842 4.082C17.066 4.614 17.248 5.328 17.276 5.79L18.648 5.426C18.578 4.964 18.382 4.278 18.13 3.774L16.842 4.082ZM20.328 3.746C20.202 4.236 19.964 4.95 19.768 5.426L21.098 5.706C21.308 5.272 21.546 4.67 21.812 4.026L20.328 3.746ZM18.494 8.898C17.878 10.13 16.716 11.488 15.61 12.202C15.96 12.468 16.45 13.028 16.716 13.392C17.836 12.482 18.998 10.872 19.684 9.332L18.494 8.898ZM37.156 7.624V9.038H42.7V7.624H37.156ZM37.142 10.088V11.488H42.7V10.088H37.142ZM42.56 1.436C42.28 2.29 41.748 3.396 41.328 4.11L42.784 4.656C43.218 3.984 43.736 2.99 44.198 2.01L42.56 1.436ZM35.602 2.164C36.148 2.976 36.694 4.054 36.876 4.768L38.388 4.054C38.178 3.34 37.576 2.304 37.016 1.534L35.602 2.164ZM36.036 5.02V14.246H37.688V6.588H42.728V5.02H36.036ZM41.944 5.02V12.426C41.944 12.608 41.874 12.664 41.664 12.678C41.454 12.678 40.712 12.678 40.068 12.65C40.278 13.084 40.502 13.77 40.572 14.218C41.622 14.218 42.378 14.204 42.91 13.952C43.428 13.686 43.582 13.238 43.582 12.44V5.02H41.944ZM39.018 1.1V6.07H40.712V1.1H39.018ZM31.836 2.402C32.704 2.864 33.796 3.606 34.286 4.124L35.336 2.836C34.79 2.304 33.684 1.646 32.816 1.226L31.836 2.402ZM31.192 6.126C32.088 6.588 33.194 7.33 33.712 7.862L34.72 6.546C34.16 6.014 33.026 5.342 32.144 4.936L31.192 6.126ZM31.584 13.112L33.054 14.19C33.81 12.776 34.594 11.152 35.224 9.64L33.992 8.632C33.236 10.27 32.27 12.048 31.584 13.112ZM50.19 10.27V12.3C50.19 13.756 50.624 14.218 52.444 14.218C52.822 14.218 54.348 14.218 54.74 14.218C56.098 14.218 56.56 13.798 56.77 12.118C56.322 12.034 55.608 11.782 55.272 11.544C55.202 12.58 55.104 12.734 54.572 12.734C54.194 12.734 52.934 12.734 52.64 12.734C51.968 12.734 51.856 12.678 51.856 12.286V10.27H50.19ZM51.744 9.948C52.472 10.55 53.298 11.418 53.648 12.02L54.964 11.124C54.572 10.494 53.718 9.682 52.976 9.122L51.744 9.948ZM56.098 10.676C57.078 11.614 58.086 12.902 58.464 13.812L59.92 12.874C59.5 11.922 58.422 10.704 57.442 9.822L56.098 10.676ZM48.118 10.004C47.824 11.054 47.264 12.132 46.508 12.804L47.908 13.784C48.762 12.958 49.266 11.698 49.616 10.55L48.118 10.004ZM50.414 5.356H56.084V6.056H50.414V5.356ZM50.414 7.274H56.084V7.974H50.414V7.274ZM50.414 3.452H56.084V4.152H50.414V3.452ZM48.79 2.178V9.262H57.778V2.178H48.79ZM52.332 0.96C52.248 1.436 52.066 2.08 51.898 2.57L53.452 2.878C53.69 2.458 54.054 1.884 54.376 1.212L52.332 0.96Z" fill="white"/>
</svg>
