<svg width="61" height="30" viewBox="0 0 61 30" fill="none" xmlns="http://www.w3.org/2000/svg">
<path d="M0.742 9.718V11.286H6.174V9.718H0.742ZM2.73 7.31V10.488H4.298V7.31H2.73ZM9.478 9.69V11.286H13.552V9.69H9.478ZM7.14 18.02V19.588H12.152V18.02H7.14ZM8.638 7.1V14.394H10.374V7.1H8.638ZM6.398 13.708V20.246H8.022V15.276H11.354V20.19H13.062V13.708H6.398ZM0.434 17.348L0.77 19.028C2.338 18.678 4.41 18.202 6.328 17.74L6.16 16.186C4.102 16.648 1.89 17.096 0.434 17.348ZM1.106 11.944C1.4 13.442 1.624 15.402 1.596 16.676L3.038 16.396C3.01 15.094 2.786 13.204 2.436 11.692L1.106 11.944ZM4.228 11.552C4.158 13.148 3.892 15.332 3.612 16.69L5.012 16.97C5.306 15.668 5.642 13.61 5.866 11.832L4.228 11.552ZM22.75 13.736V20.246H24.276V15.248H26.88V20.19H28.476V13.736H22.75ZM24.612 7.128V14.142H26.25V7.128H24.612ZM25.592 10.012V11.566H28.966V10.012H25.592ZM23.548 18.188V19.714H27.622V18.188H23.548ZM17.57 8.668H20.972V11.72H17.57V8.668ZM16.324 7.534V12.854H22.274V7.534H16.324ZM17.542 9.27C17.752 9.914 17.92 10.754 17.948 11.314L18.676 11.076C18.634 10.544 18.452 9.704 18.228 9.06L17.542 9.27ZM17.878 17.292C18.032 18.076 18.144 19.084 18.116 19.756L19.194 19.63C19.194 18.958 19.082 17.95 18.9 17.166L17.878 17.292ZM19.278 17.236C19.544 17.978 19.796 18.958 19.852 19.588L20.888 19.364C20.818 18.734 20.552 17.782 20.272 17.054L19.278 17.236ZM20.65 17.11C21.07 17.81 21.504 18.748 21.672 19.364L22.722 18.93C22.554 18.314 22.106 17.418 21.644 16.746L20.65 17.11ZM16.66 17.208C16.52 18.132 16.212 19.112 15.694 19.7L16.786 20.26C17.36 19.616 17.612 18.552 17.78 17.544L16.66 17.208ZM20.286 9.046C20.174 9.634 19.922 10.53 19.726 11.104L20.342 11.328C20.58 10.824 20.86 10.012 21.126 9.34L20.286 9.046ZM15.988 15.472L16.044 16.886C17.752 16.802 20.146 16.69 22.428 16.55L22.47 15.248C20.104 15.346 17.626 15.43 15.988 15.472ZM16.338 13.456V14.73H22.232V13.456H16.338ZM18.732 8.108V12.336H18.508V15.99H19.978V12.336H19.754V8.108H18.732ZM39.438 7.114V16.998H41.02V7.114H39.438ZM35.294 12.742L35.924 14.226L43.162 11.09L42.546 9.662L35.294 12.742ZM36.68 8.472V17.53C36.68 19.476 37.212 19.98 39.13 19.98C39.564 19.98 41.664 19.98 42.126 19.98C43.764 19.98 44.268 19.322 44.478 17.334C44.03 17.25 43.372 16.984 43.008 16.732C42.896 18.174 42.756 18.482 41.986 18.482C41.552 18.482 39.69 18.482 39.27 18.482C38.402 18.482 38.276 18.37 38.276 17.544V8.472H36.68ZM42.224 9.844C42.224 12.938 42.224 14.464 42.168 14.744C42.126 14.996 42.042 15.038 41.874 15.038C41.748 15.038 41.426 15.038 41.188 15.024C41.37 15.374 41.496 16.004 41.552 16.424C42 16.424 42.602 16.424 43.008 16.228C43.442 16.046 43.68 15.71 43.736 15.066C43.792 14.492 43.82 12.798 43.82 10.124L43.89 9.844L42.714 9.424L42.42 9.634L42.126 9.844H42.224ZM31.276 10.362V11.944H35.896V10.362H31.276ZM32.9 7.31V16.592H34.468V7.31H32.9ZM31.08 16.606L31.752 18.286C33.054 17.698 34.664 16.942 36.148 16.186L35.77 14.702C34.062 15.43 32.242 16.186 31.08 16.606ZM51.688 10.25H54.572V10.81H51.688V10.25ZM50.358 9.41V11.65H55.986V9.41H50.358ZM51.156 14.31H55.118V16.998H51.156V14.31ZM49.882 13.4V17.922H56.476V13.4H49.882ZM52.626 15.416H53.62V15.892H52.626V15.416ZM51.73 14.716V16.592H54.586V14.716H51.73ZM49.224 12.07V12.98H57.19V12.07H49.224ZM52.416 11.104V12.476H53.83V11.104H52.416ZM47.194 7.59V20.26H48.762V8.962H57.61V20.26H59.248V7.59H47.194ZM48.188 18.384V19.77H58.436V18.384H48.188Z" fill="white"/>
</svg>
