<svg width="51" height="13" viewBox="0 0 51 13" fill="none" xmlns="http://www.w3.org/2000/svg">
<path d="M0.636 3.044V4.388H5.292V3.044H0.636ZM2.34 0.98V3.704H3.684V0.98H2.34ZM8.124 3.02V4.388H11.616V3.02H8.124ZM6.12 10.16V11.504H10.416V10.16H6.12ZM7.404 0.8V7.052H8.892V0.8H7.404ZM5.484 6.464V12.068H6.876V7.808H9.732V12.02H11.196V6.464H5.484ZM0.372 9.584L0.66 11.024C2.004 10.724 3.78 10.316 5.424 9.92L5.28 8.588C3.516 8.984 1.62 9.368 0.372 9.584ZM0.948 4.952C1.2 6.236 1.392 7.916 1.368 9.008L2.604 8.768C2.58 7.652 2.388 6.032 2.088 4.736L0.948 4.952ZM3.624 4.616C3.564 5.984 3.336 7.856 3.096 9.02L4.296 9.26C4.548 8.144 4.836 6.38 5.028 4.856L3.624 4.616ZM19.5 6.488V12.068H20.808V7.784H23.04V12.02H24.408V6.488H19.5ZM21.096 0.823999V6.836H22.5V0.823999H21.096ZM21.936 3.296V4.628H24.828V3.296H21.936ZM20.184 10.304V11.612H23.676V10.304H20.184ZM15.06 2.144H17.976V4.76H15.06V2.144ZM13.992 1.172V5.732H19.092V1.172H13.992ZM15.036 2.66C15.216 3.212 15.36 3.932 15.384 4.412L16.008 4.208C15.972 3.752 15.816 3.032 15.624 2.48L15.036 2.66ZM15.324 9.536C15.456 10.208 15.552 11.072 15.528 11.648L16.452 11.54C16.452 10.964 16.356 10.1 16.2 9.428L15.324 9.536ZM16.524 9.488C16.752 10.124 16.968 10.964 17.016 11.504L17.904 11.312C17.844 10.772 17.616 9.956 17.376 9.332L16.524 9.488ZM17.7 9.38C18.06 9.98 18.432 10.784 18.576 11.312L19.476 10.94C19.332 10.412 18.948 9.644 18.552 9.068L17.7 9.38ZM14.28 9.464C14.16 10.256 13.896 11.096 13.452 11.6L14.388 12.08C14.88 11.528 15.096 10.616 15.24 9.752L14.28 9.464ZM17.388 2.468C17.292 2.972 17.076 3.74 16.908 4.232L17.436 4.424C17.64 3.992 17.88 3.296 18.108 2.72L17.388 2.468ZM13.704 7.976L13.752 9.188C15.216 9.116 17.268 9.02 19.224 8.9L19.26 7.784C17.232 7.868 15.108 7.94 13.704 7.976ZM14.004 6.248V7.34H19.056V6.248H14.004ZM16.056 1.664V5.288H15.864V8.42H17.124V5.288H16.932V1.664H16.056ZM33.804 0.812V9.284H35.16V0.812H33.804ZM30.252 5.636L30.792 6.908L36.996 4.22L36.468 2.996L30.252 5.636ZM31.44 1.976V9.74C31.44 11.408 31.896 11.84 33.54 11.84C33.912 11.84 35.712 11.84 36.108 11.84C37.512 11.84 37.944 11.276 38.124 9.572C37.74 9.5 37.176 9.272 36.864 9.056C36.768 10.292 36.648 10.556 35.988 10.556C35.616 10.556 34.02 10.556 33.66 10.556C32.916 10.556 32.808 10.46 32.808 9.752V1.976H31.44ZM36.192 3.152C36.192 5.804 36.192 7.112 36.144 7.352C36.108 7.568 36.036 7.604 35.892 7.604C35.784 7.604 35.508 7.604 35.304 7.592C35.46 7.892 35.568 8.432 35.616 8.792C36 8.792 36.516 8.792 36.864 8.624C37.236 8.468 37.44 8.18 37.488 7.628C37.536 7.136 37.56 5.684 37.56 3.392L37.62 3.152L36.612 2.792L36.36 2.972L36.108 3.152H36.192ZM26.808 3.596V4.952H30.768V3.596H26.808ZM28.2 0.98V8.936H29.544V0.98H28.2ZM26.64 8.948L27.216 10.388C28.332 9.884 29.712 9.236 30.984 8.588L30.66 7.316C29.196 7.94 27.636 8.588 26.64 8.948ZM44.304 3.5H46.776V3.98H44.304V3.5ZM43.164 2.78V4.7H47.988V2.78H43.164ZM43.848 6.98H47.244V9.284H43.848V6.98ZM42.756 6.2V10.076H48.408V6.2H42.756ZM45.108 7.928H45.96V8.336H45.108V7.928ZM44.34 7.328V8.936H46.788V7.328H44.34ZM42.192 5.06V5.84H49.02V5.06H42.192ZM44.928 4.232V5.408H46.14V4.232H44.928ZM40.452 1.22V12.08H41.796V2.396H49.38V12.08H50.784V1.22H40.452ZM41.304 10.472V11.66H50.088V10.472H41.304Z" fill="white"/>
</svg>
