<svg width="61" height="31" viewBox="0 0 61 31" fill="none" xmlns="http://www.w3.org/2000/svg">
<path d="M0.588 7.646V9.144H5.754V7.646H0.588ZM2.1 10.628V11.986H4.564V10.628H2.1ZM6.16 16.536V17.656H8.26V16.536H6.16ZM10.542 16.536V17.656H12.67V16.536H10.542ZM2.1 13.47V14.842H4.564V13.47H2.1ZM1.218 8.444V17.222H2.604V8.444H1.218ZM3.682 8.43V20.26H5.082V8.43H3.682ZM9.716 14.03V20.26H11.074V14.03H9.716ZM5.712 14.464V18.174H6.93V14.464H5.712ZM11.872 14.464V18.146H13.132V14.464H11.872ZM0.336 16.872L0.616 18.426C1.764 18.216 3.15 17.936 4.48 17.67L4.354 16.228C2.884 16.48 1.386 16.732 0.336 16.872ZM7.7 14.044V16.508C7.7 17.6 7.49 18.58 5.95 19.238C6.23 19.462 6.622 20.008 6.776 20.33C8.75 19.49 9.044 18.104 9.044 16.536V14.044H7.7ZM5.348 12.714L5.502 13.862C6.496 13.778 7.686 13.652 8.89 13.54L8.876 12.462C7.546 12.56 6.272 12.658 5.348 12.714ZM5.516 9.872C6.16 10.404 6.888 11.188 7.196 11.734L7.91 10.656C7.602 10.124 6.846 9.41 6.216 8.892L5.516 9.872ZM8.022 11.804C8.344 12.476 8.596 13.358 8.624 13.918L9.66 13.582C9.618 13.022 9.338 12.168 9.002 11.524L8.022 11.804ZM7.196 7.114C6.972 7.884 6.538 9.004 6.174 9.718L7.056 10.068C7.49 9.438 8.05 8.402 8.554 7.52L7.196 7.114ZM8.232 8.92C7.7 10.152 6.776 11.86 5.978 12.924L6.832 13.288C7.644 12.308 8.666 10.684 9.45 9.354L8.232 8.92ZM9.408 12.672L9.618 13.834C10.598 13.736 11.774 13.61 12.964 13.47L12.936 12.42C11.62 12.518 10.346 12.616 9.408 12.672ZM9.282 9.844C9.954 10.362 10.696 11.146 11.004 11.706L11.718 10.586C11.396 10.04 10.626 9.326 9.94 8.822L9.282 9.844ZM11.914 11.818C12.278 12.574 12.572 13.54 12.628 14.156L13.692 13.792C13.636 13.176 13.3 12.224 12.908 11.496L11.914 11.818ZM11.004 7.114C10.766 7.898 10.318 9.004 9.926 9.718L10.878 10.096C11.326 9.452 11.886 8.43 12.39 7.534L11.004 7.114ZM12.068 8.878C11.55 10.096 10.64 11.818 9.856 12.868L10.738 13.274C11.564 12.28 12.572 10.656 13.37 9.34L12.068 8.878ZM21.868 14.87V20.26H23.436V16.312H26.488V20.218H28.126V14.87H21.868ZM22.778 18.244V19.686H27.006V18.244H22.778ZM23.492 7.114C22.974 8.43 21.98 9.942 20.426 11.076C20.776 11.286 21.308 11.832 21.546 12.168C23.268 10.796 24.374 9.102 25.116 7.394L23.492 7.114ZM23.688 8.36L22.974 9.788H27.174V8.36H23.688ZM26.74 8.36V8.64C25.802 11.258 23.366 13.162 20.622 14.086C20.944 14.366 21.448 15.024 21.63 15.416C24.472 14.324 27.104 12.112 28.35 8.864L27.328 8.29L27.062 8.36H26.74ZM23.492 9.662L22.106 10.222C23.492 12.378 25.718 14.226 28.14 15.178C28.392 14.772 28.854 14.142 29.218 13.834C26.88 13.064 24.612 11.44 23.492 9.662ZM17.92 7.128C17.598 8.108 16.996 9.452 16.492 10.278L17.612 10.768C18.158 9.984 18.802 8.738 19.376 7.674L17.92 7.128ZM19.53 8.78C18.802 10.292 17.514 12.35 16.478 13.624L17.444 14.17C18.508 12.952 19.88 11.006 20.888 9.396L19.53 8.78ZM15.764 10.446C16.478 11.118 17.332 12.098 17.668 12.77L18.536 11.468C18.172 10.824 17.304 9.942 16.562 9.298L15.764 10.446ZM19.11 12.126C19.628 13.092 20.118 14.352 20.258 15.164L21.448 14.632C21.294 13.834 20.762 12.602 20.216 11.664L19.11 12.126ZM15.75 13.288L15.89 14.758C17.248 14.66 19.04 14.548 20.762 14.422L20.776 13.092C18.928 13.176 17.038 13.246 15.75 13.288ZM19.418 15.612C19.726 16.438 20.09 17.516 20.23 18.216L21.462 17.782C21.308 17.082 20.944 16.032 20.594 15.234L19.418 15.612ZM16.352 15.346C16.24 16.536 16.016 17.782 15.61 18.608C15.96 18.748 16.59 19.042 16.884 19.224C17.29 18.328 17.598 16.928 17.738 15.584L16.352 15.346ZM17.92 14.03V20.274H19.39V14.03H17.92ZM40.656 8.36C41.412 9.046 42.294 10.026 42.658 10.698L44.016 9.746C43.596 9.088 42.686 8.15 41.916 7.492L40.656 8.36ZM31.486 11.09V12.686H44.128V11.09H31.486ZM31.22 15.052L31.64 16.746C33.446 16.382 35.882 15.892 38.15 15.416L38.024 13.89C35.574 14.338 32.914 14.8 31.22 15.052ZM34.146 8.836V18.272C34.146 18.51 34.062 18.58 33.81 18.58C33.558 18.594 32.746 18.594 31.948 18.552C32.2 19.028 32.48 19.784 32.55 20.26C33.698 20.26 34.524 20.204 35.084 19.938C35.658 19.672 35.84 19.21 35.84 18.3V8.836H34.146ZM37.016 7.198C35.574 7.688 33.39 8.122 31.416 8.388C31.612 8.766 31.822 9.396 31.906 9.788C33.936 9.564 36.33 9.186 38.15 8.626L37.016 7.198ZM38.388 7.226C38.43 13.512 39.522 20.316 42.42 20.316C43.694 20.316 44.226 19.7 44.492 17.222C44.044 17.04 43.47 16.648 43.12 16.256C43.036 17.922 42.882 18.608 42.588 18.608C41.314 18.608 40.054 12.868 40.152 7.226H38.388ZM42.196 13.148C40.95 15.458 38.668 17.362 36.274 18.454C36.694 18.832 37.156 19.392 37.408 19.812C39.942 18.468 42.224 16.382 43.68 13.778L42.196 13.148ZM51.562 9.928V11.118H54.04V9.928H51.562ZM55.776 9.928V11.118H58.268V9.928H55.776ZM57.764 7.856V18.3C57.764 18.566 57.666 18.65 57.4 18.65C57.12 18.664 56.14 18.664 55.286 18.622C55.51 19.042 55.762 19.784 55.832 20.232C57.148 20.232 58.03 20.204 58.604 19.924C59.178 19.672 59.36 19.224 59.36 18.314V7.856H57.764ZM50.582 7.856V20.218H52.136V7.856H50.582ZM51.66 7.856V9.13H53.298V11.958H51.66V13.232H54.558V7.856H51.66ZM58.548 7.856H55.188V13.232H58.548V11.958H56.504V9.13H58.548V7.856ZM49.126 7.142C48.524 9.186 47.488 11.244 46.354 12.56C46.62 13.008 47.026 13.96 47.166 14.38C48.594 12.7 49.882 10.04 50.68 7.59L49.126 7.142ZM48.02 10.978V20.246H49.616V9.466L49.574 9.438L48.02 10.978Z" fill="white"/>
<line x1="1.5" y1="29.5" x2="59.5" y2="29.5" stroke="white" stroke-width="3" stroke-linecap="round"/>
</svg>
