<svg width="52" height="25" viewBox="0 0 52 25" fill="none" xmlns="http://www.w3.org/2000/svg">
<path d="M0.504 6.268V7.552H4.932V6.268H0.504ZM1.8 8.824V9.988H3.912V8.824H1.8ZM5.28 13.888V14.848H7.08V13.888H5.28ZM9.036 13.888V14.848H10.86V13.888H9.036ZM1.8 11.26V12.436H3.912V11.26H1.8ZM1.044 6.952V14.476H2.232V6.952H1.044ZM3.156 6.94V17.08H4.356V6.94H3.156ZM8.328 11.74V17.08H9.492V11.74H8.328ZM4.896 12.112V15.292H5.94V12.112H4.896ZM10.176 12.112V15.268H11.256V12.112H10.176ZM0.288 14.176L0.528 15.508C1.512 15.328 2.7 15.088 3.84 14.86L3.732 13.624C2.472 13.84 1.188 14.056 0.288 14.176ZM6.6 11.752V13.864C6.6 14.8 6.42 15.64 5.1 16.204C5.34 16.396 5.676 16.864 5.808 17.14C7.5 16.42 7.752 15.232 7.752 13.888V11.752H6.6ZM4.584 10.612L4.716 11.596C5.568 11.524 6.588 11.416 7.62 11.32L7.608 10.396C6.468 10.48 5.376 10.564 4.584 10.612ZM4.728 8.176C5.28 8.632 5.904 9.304 6.168 9.772L6.78 8.848C6.516 8.392 5.868 7.78 5.328 7.336L4.728 8.176ZM6.876 9.832C7.152 10.408 7.368 11.164 7.392 11.644L8.28 11.356C8.244 10.876 8.004 10.144 7.716 9.592L6.876 9.832ZM6.168 5.812C5.976 6.472 5.604 7.432 5.292 8.044L6.048 8.344C6.42 7.804 6.9 6.916 7.332 6.16L6.168 5.812ZM7.056 7.36C6.6 8.416 5.808 9.88 5.124 10.792L5.856 11.104C6.552 10.264 7.428 8.872 8.1 7.732L7.056 7.36ZM8.064 10.576L8.244 11.572C9.084 11.488 10.092 11.38 11.112 11.26L11.088 10.36C9.96 10.444 8.868 10.528 8.064 10.576ZM7.956 8.152C8.532 8.596 9.168 9.268 9.432 9.748L10.044 8.788C9.768 8.32 9.108 7.708 8.52 7.276L7.956 8.152ZM10.212 9.844C10.524 10.492 10.776 11.32 10.824 11.848L11.736 11.536C11.688 11.008 11.4 10.192 11.064 9.568L10.212 9.844ZM9.432 5.812C9.228 6.484 8.844 7.432 8.508 8.044L9.324 8.368C9.708 7.816 10.188 6.94 10.62 6.172L9.432 5.812ZM10.344 7.324C9.9 8.368 9.12 9.844 8.448 10.744L9.204 11.092C9.912 10.24 10.776 8.848 11.46 7.72L10.344 7.324ZM18.744 12.46V17.08H20.088V13.696H22.704V17.044H24.108V12.46H18.744ZM19.524 15.352V16.588H23.148V15.352H19.524ZM20.136 5.812C19.692 6.94 18.84 8.236 17.508 9.208C17.808 9.388 18.264 9.856 18.468 10.144C19.944 8.968 20.892 7.516 21.528 6.052L20.136 5.812ZM20.304 6.88L19.692 8.104H23.292V6.88H20.304ZM22.92 6.88V7.12C22.116 9.364 20.028 10.996 17.676 11.788C17.952 12.028 18.384 12.592 18.54 12.928C20.976 11.992 23.232 10.096 24.3 7.312L23.424 6.82L23.196 6.88H22.92ZM20.136 7.996L18.948 8.476C20.136 10.324 22.044 11.908 24.12 12.724C24.336 12.376 24.732 11.836 25.044 11.572C23.04 10.912 21.096 9.52 20.136 7.996ZM15.36 5.824C15.084 6.664 14.568 7.816 14.136 8.524L15.096 8.944C15.564 8.272 16.116 7.204 16.608 6.292L15.36 5.824ZM16.74 7.24C16.116 8.536 15.012 10.3 14.124 11.392L14.952 11.86C15.864 10.816 17.04 9.148 17.904 7.768L16.74 7.24ZM13.512 8.668C14.124 9.244 14.856 10.084 15.144 10.66L15.888 9.544C15.576 8.992 14.832 8.236 14.196 7.684L13.512 8.668ZM16.38 10.108C16.824 10.936 17.244 12.016 17.364 12.712L18.384 12.256C18.252 11.572 17.796 10.516 17.328 9.712L16.38 10.108ZM13.5 11.104L13.62 12.364C14.784 12.28 16.32 12.184 17.796 12.076L17.808 10.936C16.224 11.008 14.604 11.068 13.5 11.104ZM16.644 13.096C16.908 13.804 17.22 14.728 17.34 15.328L18.396 14.956C18.264 14.356 17.952 13.456 17.652 12.772L16.644 13.096ZM14.016 12.868C13.92 13.888 13.728 14.956 13.38 15.664C13.68 15.784 14.22 16.036 14.472 16.192C14.82 15.424 15.084 14.224 15.204 13.072L14.016 12.868ZM15.36 11.74V17.092H16.62V11.74H15.36ZM34.848 6.88C35.496 7.468 36.252 8.308 36.564 8.884L37.728 8.068C37.368 7.504 36.588 6.7 35.928 6.136L34.848 6.88ZM26.988 9.22V10.588H37.824V9.22H26.988ZM26.76 12.616L27.12 14.068C28.668 13.756 30.756 13.336 32.7 12.928L32.592 11.62C30.492 12.004 28.212 12.4 26.76 12.616ZM29.268 7.288V15.376C29.268 15.58 29.196 15.64 28.98 15.64C28.764 15.652 28.068 15.652 27.384 15.616C27.6 16.024 27.84 16.672 27.9 17.08C28.884 17.08 29.592 17.032 30.072 16.804C30.564 16.576 30.72 16.18 30.72 15.4V7.288H29.268ZM31.728 5.884C30.492 6.304 28.62 6.676 26.928 6.904C27.096 7.228 27.276 7.768 27.348 8.104C29.088 7.912 31.14 7.588 32.7 7.108L31.728 5.884ZM32.904 5.908C32.94 11.296 33.876 17.128 36.36 17.128C37.452 17.128 37.908 16.6 38.136 14.476C37.752 14.32 37.26 13.984 36.96 13.648C36.888 15.076 36.756 15.664 36.504 15.664C35.412 15.664 34.332 10.744 34.416 5.908H32.904ZM36.168 10.984C35.1 12.964 33.144 14.596 31.092 15.532C31.452 15.856 31.848 16.336 32.064 16.696C34.236 15.544 36.192 13.756 37.44 11.524L36.168 10.984ZM44.196 8.224V9.244H46.32V8.224H44.196ZM47.808 8.224V9.244H49.944V8.224H47.808ZM49.512 6.448V15.4C49.512 15.628 49.428 15.7 49.2 15.7C48.96 15.712 48.12 15.712 47.388 15.676C47.58 16.036 47.796 16.672 47.856 17.056C48.984 17.056 49.74 17.032 50.232 16.792C50.724 16.576 50.88 16.192 50.88 15.412V6.448H49.512ZM43.356 6.448V17.044H44.688V6.448H43.356ZM44.28 6.448V7.54H45.684V9.964H44.28V11.056H46.764V6.448H44.28ZM50.184 6.448H47.304V11.056H50.184V9.964H48.432V7.54H50.184V6.448ZM42.108 5.836C41.592 7.588 40.704 9.352 39.732 10.48C39.96 10.864 40.308 11.68 40.428 12.04C41.652 10.6 42.756 8.32 43.44 6.22L42.108 5.836ZM41.16 9.124V17.068H42.528V7.828L42.492 7.804L41.16 9.124Z" fill="white"/>
</svg>
