<svg width="52" height="25" viewBox="0 0 52 25" fill="none" xmlns="http://www.w3.org/2000/svg">
<path d="M4.836 12.172C5.1 12.592 5.34 13.156 5.424 13.516L6.144 13.264C6.072 12.904 5.808 12.364 5.532 11.956L4.836 12.172ZM2.832 11.26C3.264 11.584 3.78 12.064 4.008 12.412L4.488 11.776C4.248 11.452 3.732 11.008 3.3 10.708L2.832 11.26ZM4.164 9.94C3.996 10.276 3.672 10.792 3.42 11.128L4.044 11.404C4.32 11.116 4.668 10.684 5.004 10.264L4.164 9.94ZM4.98 10.816C4.572 11.392 3.84 12.244 3.264 12.76L3.816 13.036C4.392 12.568 5.136 11.8 5.724 11.152L4.98 10.816ZM6.24 13.492V16.852H7.212V13.492H6.24ZM2.736 12.664L2.82 13.444C3.636 13.384 4.584 13.3 5.58 13.204L5.568 12.472C4.488 12.556 3.48 12.616 2.736 12.664ZM7.872 12.1C8.16 12.568 8.436 13.18 8.52 13.588L9.276 13.336C9.18 12.928 8.892 12.328 8.592 11.896L7.872 12.1ZM5.688 11.2C6.156 11.56 6.708 12.1 6.948 12.46L7.488 11.86C7.236 11.512 6.672 11.008 6.204 10.672L5.688 11.2ZM7.08 9.928C6.888 10.3 6.516 10.864 6.24 11.212L6.876 11.5C7.188 11.188 7.572 10.72 7.944 10.264L7.08 9.928ZM7.932 10.828C7.5 11.428 6.72 12.304 6.108 12.82L6.672 13.12C7.296 12.628 8.076 11.848 8.7 11.176L7.932 10.828ZM5.928 12.664L6.096 13.444C6.876 13.372 7.788 13.312 8.712 13.216L8.7 12.496C7.644 12.568 6.672 12.628 5.928 12.664ZM3.096 13.684V15.52H5.28V14.728H3.984V13.684H3.096ZM7.968 13.684V14.728H7.008V15.52H8.856V13.684H7.968ZM4.704 13.492V14.62C4.704 15.256 4.536 15.868 3.288 16.24C3.492 16.42 3.792 16.792 3.912 17.02C5.436 16.492 5.664 15.592 5.664 14.656V13.492H4.704ZM1.656 7.804V8.668H4.668V7.804H1.656ZM7.176 7.804V8.668H10.224V7.804H7.176ZM9.732 6.268V15.424C9.732 15.58 9.684 15.64 9.528 15.64C9.372 15.64 8.892 15.64 8.448 15.616C8.628 15.988 8.808 16.636 8.856 17.02C9.648 17.02 10.2 16.996 10.608 16.756C11.016 16.516 11.124 16.12 11.124 15.436V6.268H9.732ZM1.788 6.268V7.24H4.236V9.22H1.788V10.192H5.592V6.268H1.788ZM10.452 6.268H6.372V10.192H10.452V9.22H7.74V7.24H10.452V6.268ZM0.936 6.268V17.08H2.304V6.268H0.936ZM13.656 7.648V8.98H18.888V7.648H13.656ZM15.6 10.264V11.572H17.568V10.264H15.6ZM15.54 5.824V8.08H16.968V5.824H15.54ZM21.588 7.432C22.056 8.788 23.016 10.42 24.228 11.308C24.42 10.828 24.684 10.24 24.948 9.844C23.808 9.16 22.824 7.444 22.248 5.764H20.832C20.424 7.24 19.476 9.112 18.312 9.952C18.54 10.3 18.84 10.9 18.972 11.32C20.172 10.432 21.132 8.752 21.588 7.432ZM14.82 8.488C14.796 11.704 14.772 14.428 13.404 16.084C13.764 16.336 14.22 16.816 14.436 17.164C16.044 15.232 16.176 12.1 16.224 8.488H14.82ZM17.112 10.264V10.528C17.064 14.128 16.992 15.352 16.812 15.628C16.716 15.772 16.62 15.808 16.464 15.808C16.272 15.808 15.948 15.808 15.552 15.772C15.756 16.132 15.9 16.684 15.924 17.068C16.428 17.092 16.908 17.08 17.208 17.032C17.556 16.96 17.796 16.852 18.024 16.504C18.336 16.072 18.396 14.656 18.456 10.84C18.468 10.672 18.468 10.264 18.468 10.264H17.112ZM20.196 11.272C20.952 11.8 21.852 12.592 22.248 13.156L23.268 12.136C22.836 11.584 21.9 10.864 21.144 10.372L20.196 11.272ZM19.164 14.56C20.58 15.208 22.344 16.288 23.16 17.092L24.108 15.82C23.244 15.028 21.42 14.032 20.04 13.444L19.164 14.56ZM34.848 6.88C35.496 7.468 36.252 8.308 36.564 8.884L37.728 8.068C37.368 7.504 36.588 6.7 35.928 6.136L34.848 6.88ZM26.988 9.22V10.588H37.824V9.22H26.988ZM26.76 12.616L27.12 14.068C28.668 13.756 30.756 13.336 32.7 12.928L32.592 11.62C30.492 12.004 28.212 12.4 26.76 12.616ZM29.268 7.288V15.376C29.268 15.58 29.196 15.64 28.98 15.64C28.764 15.652 28.068 15.652 27.384 15.616C27.6 16.024 27.84 16.672 27.9 17.08C28.884 17.08 29.592 17.032 30.072 16.804C30.564 16.576 30.72 16.18 30.72 15.4V7.288H29.268ZM31.728 5.884C30.492 6.304 28.62 6.676 26.928 6.904C27.096 7.228 27.276 7.768 27.348 8.104C29.088 7.912 31.14 7.588 32.7 7.108L31.728 5.884ZM32.904 5.908C32.94 11.296 33.876 17.128 36.36 17.128C37.452 17.128 37.908 16.6 38.136 14.476C37.752 14.32 37.26 13.984 36.96 13.648C36.888 15.076 36.756 15.664 36.504 15.664C35.412 15.664 34.332 10.744 34.416 5.908H32.904ZM36.168 10.984C35.1 12.964 33.144 14.596 31.092 15.532C31.452 15.856 31.848 16.336 32.064 16.696C34.236 15.544 36.192 13.756 37.44 11.524L36.168 10.984ZM44.196 8.224V9.244H46.32V8.224H44.196ZM47.808 8.224V9.244H49.944V8.224H47.808ZM49.512 6.448V15.4C49.512 15.628 49.428 15.7 49.2 15.7C48.96 15.712 48.12 15.712 47.388 15.676C47.58 16.036 47.796 16.672 47.856 17.056C48.984 17.056 49.74 17.032 50.232 16.792C50.724 16.576 50.88 16.192 50.88 15.412V6.448H49.512ZM43.356 6.448V17.044H44.688V6.448H43.356ZM44.28 6.448V7.54H45.684V9.964H44.28V11.056H46.764V6.448H44.28ZM50.184 6.448H47.304V11.056H50.184V9.964H48.432V7.54H50.184V6.448ZM42.108 5.836C41.592 7.588 40.704 9.352 39.732 10.48C39.96 10.864 40.308 11.68 40.428 12.04C41.652 10.6 42.756 8.32 43.44 6.22L42.108 5.836ZM41.16 9.124V17.068H42.528V7.828L42.492 7.804L41.16 9.124Z" fill="white"/>
</svg>
