<svg width="61" height="30" viewBox="0 0 61 30" fill="none" xmlns="http://www.w3.org/2000/svg">
<path d="M5.642 14.534C5.95 15.024 6.23 15.682 6.328 16.102L7.168 15.808C7.084 15.388 6.776 14.758 6.454 14.282L5.642 14.534ZM3.304 13.47C3.808 13.848 4.41 14.408 4.676 14.814L5.236 14.072C4.956 13.694 4.354 13.176 3.85 12.826L3.304 13.47ZM4.858 11.93C4.662 12.322 4.284 12.924 3.99 13.316L4.718 13.638C5.04 13.302 5.446 12.798 5.838 12.308L4.858 11.93ZM5.81 12.952C5.334 13.624 4.48 14.618 3.808 15.22L4.452 15.542C5.124 14.996 5.992 14.1 6.678 13.344L5.81 12.952ZM7.28 16.074V19.994H8.414V16.074H7.28ZM3.192 15.108L3.29 16.018C4.242 15.948 5.348 15.85 6.51 15.738L6.496 14.884C5.236 14.982 4.06 15.052 3.192 15.108ZM9.184 14.45C9.52 14.996 9.842 15.71 9.94 16.186L10.822 15.892C10.71 15.416 10.374 14.716 10.024 14.212L9.184 14.45ZM6.636 13.4C7.182 13.82 7.826 14.45 8.106 14.87L8.736 14.17C8.442 13.764 7.784 13.176 7.238 12.784L6.636 13.4ZM8.26 11.916C8.036 12.35 7.602 13.008 7.28 13.414L8.022 13.75C8.386 13.386 8.834 12.84 9.268 12.308L8.26 11.916ZM9.254 12.966C8.75 13.666 7.84 14.688 7.126 15.29L7.784 15.64C8.512 15.066 9.422 14.156 10.15 13.372L9.254 12.966ZM6.916 15.108L7.112 16.018C8.022 15.934 9.086 15.864 10.164 15.752L10.15 14.912C8.918 14.996 7.784 15.066 6.916 15.108ZM3.612 16.298V18.44H6.16V17.516H4.648V16.298H3.612ZM9.296 16.298V17.516H8.176V18.44H10.332V16.298H9.296ZM5.488 16.074V17.39C5.488 18.132 5.292 18.846 3.836 19.28C4.074 19.49 4.424 19.924 4.564 20.19C6.342 19.574 6.608 18.524 6.608 17.432V16.074H5.488ZM1.932 9.438V10.446H5.446V9.438H1.932ZM8.372 9.438V10.446H11.928V9.438H8.372ZM11.354 7.646V18.328C11.354 18.51 11.298 18.58 11.116 18.58C10.934 18.58 10.374 18.58 9.856 18.552C10.066 18.986 10.276 19.742 10.332 20.19C11.256 20.19 11.9 20.162 12.376 19.882C12.852 19.602 12.978 19.14 12.978 18.342V7.646H11.354ZM2.086 7.646V8.78H4.942V11.09H2.086V12.224H6.524V7.646H2.086ZM12.194 7.646H7.434V12.224H12.194V11.09H9.03V8.78H12.194V7.646ZM1.092 7.646V20.26H2.688V7.646H1.092ZM15.932 9.256V10.81H22.036V9.256H15.932ZM18.2 12.308V13.834H20.496V12.308H18.2ZM18.13 7.128V9.76H19.796V7.128H18.13ZM25.186 9.004C25.732 10.586 26.852 12.49 28.266 13.526C28.49 12.966 28.798 12.28 29.106 11.818C27.776 11.02 26.628 9.018 25.956 7.058H24.304C23.828 8.78 22.722 10.964 21.364 11.944C21.63 12.35 21.98 13.05 22.134 13.54C23.534 12.504 24.654 10.544 25.186 9.004ZM17.29 10.236C17.262 13.988 17.234 17.166 15.638 19.098C16.058 19.392 16.59 19.952 16.842 20.358C18.718 18.104 18.872 14.45 18.928 10.236H17.29ZM19.964 12.308V12.616C19.908 16.816 19.824 18.244 19.614 18.566C19.502 18.734 19.39 18.776 19.208 18.776C18.984 18.776 18.606 18.776 18.144 18.734C18.382 19.154 18.55 19.798 18.578 20.246C19.166 20.274 19.726 20.26 20.076 20.204C20.482 20.12 20.762 19.994 21.028 19.588C21.392 19.084 21.462 17.432 21.532 12.98C21.546 12.784 21.546 12.308 21.546 12.308H19.964ZM23.562 13.484C24.444 14.1 25.494 15.024 25.956 15.682L27.146 14.492C26.642 13.848 25.55 13.008 24.668 12.434L23.562 13.484ZM22.358 17.32C24.01 18.076 26.068 19.336 27.02 20.274L28.126 18.79C27.118 17.866 24.99 16.704 23.38 16.018L22.358 17.32ZM40.656 8.36C41.412 9.046 42.294 10.026 42.658 10.698L44.016 9.746C43.596 9.088 42.686 8.15 41.916 7.492L40.656 8.36ZM31.486 11.09V12.686H44.128V11.09H31.486ZM31.22 15.052L31.64 16.746C33.446 16.382 35.882 15.892 38.15 15.416L38.024 13.89C35.574 14.338 32.914 14.8 31.22 15.052ZM34.146 8.836V18.272C34.146 18.51 34.062 18.58 33.81 18.58C33.558 18.594 32.746 18.594 31.948 18.552C32.2 19.028 32.48 19.784 32.55 20.26C33.698 20.26 34.524 20.204 35.084 19.938C35.658 19.672 35.84 19.21 35.84 18.3V8.836H34.146ZM37.016 7.198C35.574 7.688 33.39 8.122 31.416 8.388C31.612 8.766 31.822 9.396 31.906 9.788C33.936 9.564 36.33 9.186 38.15 8.626L37.016 7.198ZM38.388 7.226C38.43 13.512 39.522 20.316 42.42 20.316C43.694 20.316 44.226 19.7 44.492 17.222C44.044 17.04 43.47 16.648 43.12 16.256C43.036 17.922 42.882 18.608 42.588 18.608C41.314 18.608 40.054 12.868 40.152 7.226H38.388ZM42.196 13.148C40.95 15.458 38.668 17.362 36.274 18.454C36.694 18.832 37.156 19.392 37.408 19.812C39.942 18.468 42.224 16.382 43.68 13.778L42.196 13.148ZM51.562 9.928V11.118H54.04V9.928H51.562ZM55.776 9.928V11.118H58.268V9.928H55.776ZM57.764 7.856V18.3C57.764 18.566 57.666 18.65 57.4 18.65C57.12 18.664 56.14 18.664 55.286 18.622C55.51 19.042 55.762 19.784 55.832 20.232C57.148 20.232 58.03 20.204 58.604 19.924C59.178 19.672 59.36 19.224 59.36 18.314V7.856H57.764ZM50.582 7.856V20.218H52.136V7.856H50.582ZM51.66 7.856V9.13H53.298V11.958H51.66V13.232H54.558V7.856H51.66ZM58.548 7.856H55.188V13.232H58.548V11.958H56.504V9.13H58.548V7.856ZM49.126 7.142C48.524 9.186 47.488 11.244 46.354 12.56C46.62 13.008 47.026 13.96 47.166 14.38C48.594 12.7 49.882 10.04 50.68 7.59L49.126 7.142ZM48.02 10.978V20.246H49.616V9.466L49.574 9.438L48.02 10.978Z" fill="white"/>
</svg>
